<svg xmlns="http://www.w3.org/2000/svg" version="1.1" xmlns:xlink="http://www.w3.org/1999/xlink" width="60" height="60" x="0" y="0" viewBox="0 0 64 64" style="enable-background:new 0 0 512 512" xml:space="preserve" class=""><g><path d="M13 8a1 1 0 0 0 2 0c0-1.103-.897-2-2-2h-2c-1.103 0-2 .897-2 2v6c0 1.103.897 2 2 2h2c1.103 0 2-.897 2-2a1 1 0 0 0-2 0h-2V8zM17 8v6c0 1.103.897 2 2 2h2c1.103 0 2-.897 2-2V8c0-1.103-.897-2-2-2h-2c-1.103 0-2 .897-2 2zm4.001 6H19V8h2zM46 8a1 1 0 1 0 0-2h-3c-1.103 0-2 .897-2 2v6c0 1.103.897 2 2 2h3a1 1 0 1 0 0-2h-3v-2h2a1 1 0 1 0 0-2h-2V8zM54 8a1 1 0 1 0 0-2h-3c-1.103 0-2 .897-2 2v6c0 1.103.897 2 2 2h3a1 1 0 1 0 0-2h-3v-2h2a1 1 0 1 0 0-2h-2V8zM30 8a1 1 0 0 0 0-2h-3c-1.103 0-2 .897-2 2v7a1 1 0 0 0 2 0v-3h2a1 1 0 0 0 0-2h-2V8zM38 8a1 1 0 1 0 0-2h-3c-1.103 0-2 .897-2 2v7a1 1 0 1 0 2 0v-3h2a1 1 0 1 0 0-2h-2V8z" fill="#FFF" opacity="1" data-original="#FFF" class=""></path><path d="M60 28v-5a.998.998 0 0 0-.03-.243l-.97-3.88V7c0-2.757-2.243-5-5-5H22a1 1 0 0 0 0 2h32c1.654 0 3 1.346 3 3v12c0 .082.01.163.03.243L57.719 22H6.281l.5-2H54a1 1 0 1 0 0-2H7V7c0-1.654 1.346-3 3-3h8a1 1 0 0 0 0-2h-8C7.243 2 5 4.243 5 7v11.877l-.97 3.88A.998.998 0 0 0 4 23v5c0 1.005.385 1.914 1 2.618V61a1 1 0 0 0 1 1h52a1 1 0 0 0 1-1V34.222a1 1 0 1 0-2 0V60H25V39a1 1 0 0 0-1-1H12a1 1 0 0 0-1 1v18a1 1 0 0 0 2 0V40h10v8h-2a1 1 0 0 0 0 2h2v10H7V31.858c.322.084.653.142 1 .142 1.2 0 2.266-.542 3-1.382.734.84 1.8 1.382 3 1.382s2.266-.542 3-1.382c.734.84 1.8 1.382 3 1.382s2.266-.542 3-1.382c.734.84 1.8 1.382 3 1.382s2.266-.542 3-1.382c.734.84 1.8 1.382 3 1.382a3.974 3.974 0 0 0 3-1.382c.734.84 1.799 1.382 3 1.382s2.266-.542 3-1.382c.734.84 1.799 1.382 3 1.382s2.266-.542 3-1.382c.734.84 1.799 1.382 3 1.382s2.266-.542 3-1.382A3.974 3.974 0 0 0 56 32c2.206 0 4-1.794 4-4zM8 30c-1.103 0-2-.897-2-2v-4h4v4c0 1.103-.897 2-2 2zm6 0c-1.103 0-2-.897-2-2v-4h4v4c0 1.103-.897 2-2 2zm6 0c-1.103 0-2-.897-2-2v-4h4v4c0 1.103-.897 2-2 2zm6 0c-1.103 0-2-.897-2-2v-4h4v4c0 1.103-.897 2-2 2zm6 0c-1.103 0-2-.897-2-2v-4h4v4c0 1.103-.897 2-2 2zm6 0c-1.103 0-2-.897-2-2v-4h4v4c0 1.103-.897 2-2 2zm6 0c-1.103 0-2-.897-2-2v-4h4v4c0 1.103-.897 2-2 2zm6 0c-1.103 0-2-.897-2-2v-4h4v4c0 1.103-.897 2-2 2zm4-2v-4h4v4c0 1.103-.897 2-2 2s-2-.897-2-2z" fill="#FFF" opacity="1" data-original="#FFF" class=""></path><path d="M28 50a1 1 0 0 0-1 1v6a1 1 0 0 0 1 1h26a1 1 0 0 0 1-1V39a1 1 0 0 0-1-1H28a1 1 0 0 0-1 1v8a1 1 0 0 0 2 0v-7h24v16h-9.026c.235-.31.444-.64.602-1h.924c1.93 0 3.5-1.57 3.5-3.5S47.43 48 45.5 48H36a1 1 0 0 0-1 1v4c0 1.13.391 2.162 1.026 3H29v-5a1 1 0 0 0-1-1zm19 1.5c0 .827-.673 1.5-1.5 1.5H45v-3h.5c.827 0 1.5.673 1.5 1.5zM37 53v-3h6v3c0 1.654-1.346 3-3 3s-3-1.346-3-3zM12 34a1 1 0 0 0 0 2h12a1 1 0 0 0 0-2z" fill="#FFF" opacity="1" data-original="#FFF" class=""></path><path d="M38 45v-1a1 1 0 1 0-2 0v1a1 1 0 1 0 2 0zM41 45v-1a1 1 0 1 0-2 0v1a1 1 0 1 0 2 0zM44 45v-1a1 1 0 1 0-2 0v1a1 1 0 1 0 2 0z" fill="#FFF" opacity="1" data-original="#FFF" class=""></path></g></svg>