<?xml version="1.0" encoding="UTF-8"?>
<!DOCTYPE svg PUBLIC "-//W3C//DTD SVG 1.1//EN" "http://www.w3.org/Graphics/SVG/1.1/DTD/svg11.dtd">
<!-- Creator: CorelDRAW -->
<svg xmlns="http://www.w3.org/2000/svg" xml:space="preserve" width="24.9473mm" height="27.4141mm" version="1.1" style="fill: #fff;"
viewBox="0 0 158.18 173.82"
 xmlns:xlink="http://www.w3.org/1999/xlink"
 xmlns:xodm="http://www.corel.com/coreldraw/odm/2003">

 <g id="Camada_x0020_1">
  <metadata id="CorelCorpID_0Corel-Layer"/>
  <path class="fil0" d="M136.83 1.12c-3.65,1.1 -8.89,6.21 -8.89,8.77 0,0.61 1.95,2.92 4.26,5.23 3.65,3.41 4.26,4.75 4.26,9.5l0 5.6 -29.22 0c-27.64,0 -29.34,0.12 -31.66,2.43 -1.58,1.58 -2.43,4.02 -2.43,7.31l0 4.87 -13.64 0c-7.55,0 -14.37,0.49 -15.1,0.97 -2.43,1.58 -2.92,5.6 -1.1,9.25 0.97,1.83 1.83,5.84 1.83,8.89 0,6.82 2.68,12.66 8.04,17.41l4.26 3.65 -24.23 0c-22.53,0 -24.47,0.12 -27.4,2.44 -1.7,1.34 -3.77,4.38 -4.51,6.82 -1.22,3.53 -1.1,4.75 0.49,7.18 1.1,1.71 3.04,3.04 4.38,3.04 2.31,0 2.44,0.85 2.44,22.16l0 22.28 -4.02 1.83c-3.77,1.83 -3.9,2.07 -4.26,10.59 -0.61,13.64 -6.82,12.66 75.85,12.3 80.48,-0.37 73.66,0.73 73.66,-12.18 0,-7.31 -2.56,-11.93 -6.7,-11.93 -1.58,0 -1.83,-3.29 -1.83,-22.4l0 -22.4 3.04 -0.73c6.57,-1.7 6.45,-11.32 -0.24,-16.56 -2.92,-2.19 -4.87,-2.44 -26.79,-2.44l-23.62 0 4.26 -3.65c5.48,-4.87 8.04,-10.59 8.04,-18.02 0,-3.9 0.61,-6.57 1.83,-7.55 2.31,-1.95 2.31,-7.79 0,-9.74 -1.1,-0.97 -6.57,-1.58 -14.85,-1.71l-13.15 -0.12 0 -4.26 0 -4.26 33.48 -0.24c32.39,-0.37 33.6,-0.49 35.67,-2.92 1.34,-1.71 2.07,-4.63 2.07,-9.13 0,-4.75 0.49,-6.57 1.58,-6.57 2.92,0 5.97,-4.51 5.48,-8.16 -0.24,-2.68 -1.58,-4.02 -5.84,-6.21 -5.72,-2.8 -9.13,-3.17 -15.46,-1.34l0 0zm4.75 92.05c2.92,2.68 2.8,4.99 -0.49,5.84 -4.14,0.97 -133.32,0.12 -134.42,-0.85 -0.49,-0.61 -0.24,-2.31 0.49,-4.02l1.46 -3.04 65.26 0c59.17,0 65.63,0.24 67.7,2.07l0 0zm-6.33 33.85l0 22.53 -60.88 0 -60.76 0 0 -21.55c0.12,-11.93 0.37,-22.04 0.73,-22.53 0.24,-0.61 27.64,-0.97 60.76,-0.97l60.15 0 0 22.52zm8.52 34.7l0 6.09 -68.79 0 -68.79 0 0 -6.09 0 -6.09 68.79 0 68.79 0 0 6.09z"/>
  <path class="fil0" d="M24.69 126.05l0.37 14.37 49.07 0.37 48.95 0.24 0 -14.61 0 -14.61 -49.31 0 -49.43 0 0.36 14.25 0 -0zm53.33 -2.19c0.61,1.34 0.85,3.17 0.49,4.26 -0.97,2.56 -5.11,3.65 -7.18,1.95 -1.83,-1.58 -2.44,-6.21 -0.97,-7.67 1.58,-1.7 6.45,-0.73 7.67,1.46l0 0z"/>
 </g>
</svg>
