<?xml version="1.0" encoding="UTF-8"?>
<!DOCTYPE svg PUBLIC "-//W3C//DTD SVG 1.1//EN" "http://www.w3.org/Graphics/SVG/1.1/DTD/svg11.dtd">
<!-- Creator: CorelDRAW -->
<svg xmlns="http://www.w3.org/2000/svg" xml:space="preserve" width="23.1798mm" height="27.2692mm" version="1.1" style="fill: #fff;"
viewBox="0 0 308.39 362.8"
 xmlns:xlink="http://www.w3.org/1999/xlink"
 xmlns:xodm="http://www.corel.com/coreldraw/odm/2003">

 <g id="Camada_x0020_1">
  <metadata id="CorelCorpID_0Corel-Layer"/>
  <path class="fil0" d="M36.58 4.24c-1.81,2.42 -4.23,11.49 -5.44,20.26 -1.21,10.58 -6.95,26.6 -16.33,45.65l-14.81 29.63 0 127.88c0,95.54 0.91,128.79 3.63,131.51 2.72,2.72 37.79,3.63 139.37,3.63 130.91,0 136.35,-0.3 145.72,-6.05 19.35,-11.79 19.65,-14.51 19.65,-135.75 0,-123.05 1.51,-113.37 -25.4,-155.7 -14.51,-23.28 -16.93,-29.33 -16.93,-41.42 0,-24.79 5.14,-23.88 -117.61,-23.88 -88.89,0 -109.14,0.6 -111.86,4.23l0 0zm213.75 17.54c-1.21,3.02 -24.79,4.23 -101.58,4.84 -87.98,0.61 -100.37,0 -100.37,-3.93 0,-3.93 13,-4.54 101.58,-4.54 79.82,0 101.28,0.91 100.37,3.63l0 0zm-5.44 22.07c0,0.91 -6.35,13 -13.91,27.21l-13.91 25.7 -97.95 0c-53.82,0 -97.96,-0.61 -97.96,-1.51 0,-2.42 21.47,-45.05 24.79,-49.28 2.42,-2.72 26.3,-3.63 100.98,-3.63 53.81,0 97.96,0.6 97.96,1.51zm29.63 39l15.72 25.7 0 111.56c0,133.33 2.12,125.17 -34.47,126.98l-22.98 1.21 0 -123.05 0 -123.35 12.39 -22.07c6.65,-12.4 12.7,-22.37 13,-22.37 0.6,0 7.86,11.49 16.32,25.4l0 0zm-59.86 48.68l0 19.65 -99.77 0 -99.77 0 0 -19.65 0 -19.65 99.77 0 99.77 0 0 19.65zm-95.23 57.14c28.42,12.09 45.95,34.77 48.98,64.09l1.81 16.93 -19.35 -2.12c-53.21,-6.05 -85.26,-32.35 -89.79,-73.16l-1.51 -13.91 23.88 1.51c13.3,0.91 29.33,3.93 35.98,6.65l0 -0zm95.23 134.84l0 24.19 -99.77 0 -99.77 0 0 -24.19 0 -24.19 99.77 0 99.77 0 0 24.19z"/>
  <path class="fil0" d="M73.77 199.24c4.84,5.14 21.16,15.72 35.98,23.28 14.81,7.56 32.35,18.74 38.7,24.49 14.81,13.3 15.42,9.07 1.21,-7.26 -7.26,-8.77 -21.16,-17.84 -44.74,-30.23 -42.33,-22.07 -41.72,-21.77 -31.14,-10.28l-0 0z"/>
 </g>
</svg>
