<?xml version="1.0" encoding="UTF-8"?>
<!DOCTYPE svg PUBLIC "-//W3C//DTD SVG 1.1//EN" "http://www.w3.org/Graphics/SVG/1.1/DTD/svg11.dtd">
<!-- Creator: CorelDRAW -->
<svg xmlns="http://www.w3.org/2000/svg" xml:space="preserve" width="27.6656mm" height="27.9506mm" version="1.1" style="fill: #fff;"
viewBox="0 0 1371.36 1385.49"
 xmlns:xlink="http://www.w3.org/1999/xlink"
 xmlns:xodm="http://www.corel.com/coreldraw/odm/2003">

 <g id="Camada_x0020_1">
  <metadata id="CorelCorpID_0Corel-Layer"/>
  <path class="fil0" d="M81.59 12.39c-4.51,7.89 33.79,52.94 95.75,110.39l102.5 98 0 73.22c0,72.09 -1.13,74.34 -36.05,91.24 -69.84,32.67 -141.93,108.14 -182.48,189.24 -52.94,105.88 -66.46,183.6 -59.7,326.66 6.76,150.94 34.92,226.41 117.15,315.39 110.39,120.53 244.44,168.96 466.34,168.96 350.31,0 547.43,-146.43 585.73,-437.05 31.54,-236.54 -48.43,-433.67 -225.28,-554.19l-39.42 -27.03 45.05 -20.28c47.31,-21.4 87.86,-18.02 119.4,9.01 10.14,10.14 69.84,120.53 131.79,247.81 114.89,233.17 134.04,256.82 167.83,215.14 14.64,-16.9 -112.64,-425.78 -163.33,-523.78 -49.56,-98 -83.36,-114.89 -225.28,-114.89 -113.77,0 -117.15,-1.13 -127.28,-28.16 -5.63,-15.77 -22.53,-33.79 -36.05,-39.42 -32.67,-13.52 -643.18,-112.64 -692.74,-112.64 -19.15,0 -39.43,5.63 -43.93,12.39l0 -0.01zm913.52 488.87c27.03,27.03 59.7,68.71 72.09,94.62 31.54,61.95 57.45,173.47 57.45,251.19l0 65.33 -536.17 0 -536.17 0 4.51 -104.75c6.76,-126.16 36.04,-209.51 100.25,-282.73 93.49,-105.88 78.84,-101.38 410.01,-108.14 333.42,-6.76 339.05,-5.63 428.04,84.48l-0 0z"/>
 </g>
</svg>
