<?xml version="1.0" encoding="UTF-8"?>
<!DOCTYPE svg PUBLIC "-//W3C//DTD SVG 1.1//EN" "http://www.w3.org/Graphics/SVG/1.1/DTD/svg11.dtd">
<!-- Creator: CorelDRAW -->
<svg xmlns="http://www.w3.org/2000/svg" xml:space="preserve" width="34.5579mm" height="27.0416mm" version="1.1" style="fill: #fff;"
viewBox="0 0 2469.06 1932.04"
 xmlns:xlink="http://www.w3.org/1999/xlink"
 xmlns:xodm="http://www.corel.com/coreldraw/odm/2003">
 
 <g id="Camada_x0020_1">
  <metadata id="CorelCorpID_0Corel-Layer"/>
  <path class="fil0" d="M256.87 21.11c-25.97,17.86 -17.86,34.09 95.79,178.6 108.78,139.63 128.26,155.86 155.87,141.25 37.34,-21.11 37.34,-21.11 -87.67,-178.6 -141.25,-175.35 -129.88,-165.6 -163.99,-141.25z"/>
  <path class="fil0" d="M961.5 172.09c0,168.85 0,170.48 37.34,165.61 34.09,-4.87 35.72,-12.99 40.59,-172.1l4.87 -165.6 -42.22 0 -40.58 0 0 172.09z"/>
  <path class="fil0" d="M1658 133.13c-155.86,198.07 -150.99,186.71 -113.64,206.2 27.6,14.61 47.08,-1.63 154.24,-136.38 68.19,-84.42 123.39,-155.87 123.39,-160.73 0,-4.87 -12.99,-16.24 -29.22,-24.36 -25.98,-12.99 -45.46,4.87 -134.76,115.27z"/>
  <path class="fil0" d="M88.02 508.17c-71.43,40.59 -90.92,89.29 -87.67,220.81 8.12,292.24 108.78,603.96 271.13,831.26l53.59 76.31 -63.32 8.12c-116.89,16.23 -142.87,74.68 -74.68,175.35 74.68,110.4 69.81,110.4 850.75,112.02l703 0 64.95 -58.44c82.8,-74.69 103.91,-160.73 48.71,-204.57 -19.48,-16.23 -53.58,-29.22 -74.68,-29.22 -37.35,0 -35.72,-3.25 27.6,-102.28 61.69,-95.79 73.06,-105.53 222.43,-178.6 178.6,-84.42 321.46,-201.32 388.03,-314.97 35.72,-60.07 43.84,-100.66 50.33,-206.2 6.49,-163.99 -21.11,-227.3 -128.26,-282.5 -63.32,-34.09 -86.04,-37.34 -201.32,-29.22 -99.04,6.49 -138.01,3.25 -160.73,-14.61 -27.6,-21.11 -168.85,-24.36 -941.66,-24.36 -699.76,1.62 -918.94,6.49 -948.17,21.11l-0.01 0zm1893.07 113.65c24.36,50.33 6.49,264.65 -38.97,441.61 -29.22,118.52 -162.36,394.52 -241.91,500.06l-56.82 76.31 -612.08 -3.25 -612.09 -4.87 -63.32 -81.18c-144.49,-188.33 -258.15,-501.68 -280.88,-772.81 -9.74,-103.91 -6.49,-134.76 16.24,-168.85l27.6 -40.59 920.56 3.25 920.56 4.87 21.11 45.46 0 -0.01zm308.48 76.31c68.19,63.32 40.59,246.78 -50.33,344.2 -42.21,45.46 -232.17,175.35 -256.52,175.35 -8.12,0 -1.63,-30.85 11.36,-68.19 29.22,-84.42 71.43,-319.84 71.43,-404.27 0,-68.2 11.37,-74.68 123.4,-77.93 45.46,-1.62 76.31,8.12 100.65,30.85l0.01 0zm-483.82 1045.58c0,12.99 -17.86,45.46 -38.97,69.81l-38.97 45.46 -664.04 4.87c-579.61,3.25 -670.53,1.63 -732.22,-22.73 -63.32,-24.36 -100.66,-61.69 -100.66,-102.28 0,-12.99 240.28,-17.86 787.42,-17.86 675.41,0 787.43,3.25 787.43,22.73l0 0.01z"/>
  <path class="fil0" d="M838.11 777.69c-87.67,32.47 -254.9,138 -303.61,191.58 -27.6,30.85 -24.36,34.09 64.94,121.77 219.19,207.82 435.12,256.52 665.66,150.99 105.53,-48.71 264.64,-176.97 264.64,-215.93 0,-40.58 -147.75,-172.09 -251.65,-222.43 -125.02,-61.69 -314.97,-73.06 -439.98,-25.97zm553.63 228.92c24.36,9.75 9.75,14.61 -51.95,14.61 -45.46,1.63 -138.01,12.99 -202.95,27.6 -160.73,34.09 -314.97,34.09 -386.41,1.62l-56.83 -27.59 81.18 8.12c45.46,4.87 139.63,-1.63 211.07,-14.61 147.75,-24.36 357.18,-30.85 405.88,-9.75z"/>
 </g>
</svg>
