<?xml version="1.0" encoding="UTF-8"?>
<!DOCTYPE svg PUBLIC "-//W3C//DTD SVG 1.1//EN" "http://www.w3.org/Graphics/SVG/1.1/DTD/svg11.dtd">
<!-- Creator: CorelDRAW -->
<svg xmlns="http://www.w3.org/2000/svg" xml:space="preserve" width="18.2285mm" height="27.7303mm" version="1.1" style="fill: #fff;"
viewBox="0 0 2175.73 3309.86"
 xmlns:xlink="http://www.w3.org/1999/xlink"
 xmlns:xodm="http://www.corel.com/coreldraw/odm/2003">
 
 <g id="Camada_x0020_1">
  <metadata id="CorelCorpID_0Corel-Layer"/>
  <path class="fil0" d="M1428.06 40.67c-13.56,35.26 -94.93,40.69 -499.06,40.69 -265.81,0 -520.76,8.14 -566.88,16.28 -127.48,27.12 -227.83,143.74 -306.49,358.03 -73.24,195.28 -73.24,279.36 -5.43,360.73 21.7,24.41 105.78,518.05 214.27,1255.8 97.65,667.23 176.31,1220.54 176.31,1225.97 0,21.7 1272.08,10.85 1285.64,-13.56 8.13,-10.85 89.51,-545.17 179,-1185.28 122.06,-865.23 179.01,-1187.99 216.99,-1263.94 56.95,-103.07 70.52,-263.09 29.83,-309.2 -13.56,-13.57 -37.97,-73.24 -56.95,-132.91 -21.7,-67.81 -86.8,-160.02 -179.01,-252.24 -143.76,-138.34 -151.9,-141.03 -311.91,-141.03 -119.35,0 -165.46,10.85 -176.31,40.68l0 -0.01zm455.66 230.55c37.97,29.83 75.95,78.66 84.08,108.49 13.56,54.25 5.43,54.25 -878.79,54.25 -526.18,0 -892.35,-10.85 -892.35,-24.41 0,-13.56 32.55,-62.39 70.52,-108.5l70.52 -84.08 740.47 0c694.35,0 743.16,2.71 805.55,54.25l0.01 0zm67.81 697.06c-10.85,56.96 -24.41,173.6 -35.26,257.67l-18.98 157.32 -805.57 0 -808.26 0 -29.84 -203.42c-16.28,-113.92 -29.84,-230.54 -29.84,-257.67 0,-51.53 24.41,-54.25 870.65,-54.25l873.36 0 -16.28 100.36 0.01 0zm-911.34 631.97c219.69,62.39 404.14,273.95 404.14,466.53 0,67.8 -10.85,75.94 -89.51,75.94 -135.62,0 -358.03,-73.23 -447.54,-149.17 -86.8,-73.23 -151.88,-192.57 -181.72,-333.62l-18.98 -86.79 119.34 0c65.1,0 160.04,13.56 214.27,27.12zm688.93 900.49c-24.41,146.47 -94.93,642.81 -94.93,672.65 0,16.28 -195.28,27.13 -542.46,27.13l-539.75 0 -16.28 -89.51c-24.41,-143.76 -94.93,-640.11 -94.93,-669.94 0,-16.28 233.26,-27.13 650.96,-27.13l653.66 0 -16.27 86.8 0 0z"/>
 </g>
</svg>
