<svg xmlns="http://www.w3.org/2000/svg" version="1.1" xmlns:xlink="http://www.w3.org/1999/xlink" width="60" height="60" x="0" y="0" viewBox="0 0 128 128" style="enable-background:new 0 0 512 512" xml:space="preserve" class=""><g><path d="M31.995 117.9c.398 3.981 3.978 7.1 8.15 7.1h47.71c4.172 0 7.752-3.119 8.15-7.1l1.49-14.9h-66.99zM102.051 7.316C100.843 3.734 99.158 3 97 3H31c-2.158 0-3.843.734-5.052 4.319L22.388 18h83.225zM110.025 21.237C109.822 20.629 109.423 20 109 20H19c-.458 0-.839.605-1.023 1.221L17.027 27h93.946zM25.305 51h77.39l2.2-22h-81.79zM28.905 101h70.19l4.8-48h-79.79zm35.373-35.982C70.214 65.208 75 71.4 75 79c0 6.904-3.95 12.642-9.123 13.781 1.023-3.143 2.295-8.934-1.003-14.267-2.261-4.066-2.442-8.491-.596-13.496zm-2.203.211c-1.684 5.173-1.335 9.967 1.074 14.297 2.93 4.74 1.82 9.829.544 13.454C57.77 92.771 53 86.588 53 79c0-6.883 3.926-12.608 9.075-13.771z" fill="#ffffff" opacity="1" data-original="#000000" class=""></path></g></svg>