<?xml version="1.0" encoding="UTF-8"?>
<!DOCTYPE svg PUBLIC "-//W3C//DTD SVG 1.1//EN" "http://www.w3.org/Graphics/SVG/1.1/DTD/svg11.dtd">
<!-- Creator: CorelDRAW -->
<svg xmlns="http://www.w3.org/2000/svg" xml:space="preserve" width="28.1908mm" height="28.1332mm" version="1.1" style="fill: #fff;"
viewBox="0 0 451.43 450.51"
 xmlns:xlink="http://www.w3.org/1999/xlink"
 xmlns:xodm="http://www.corel.com/coreldraw/odm/2003">
 
 <g id="Camada_x0020_1">
  <metadata id="CorelCorpID_0Corel-Layer"/>
  <path class="fil0" d="M21.83 0.38c-5.1,0.73 -12.01,4 -15.28,6.91 -6.19,5.46 -6.55,20.38 -6.55,214.33l0 208.51 8.73 10.19 8.73 10.19 179.03 0 179.04 0 8.73 -10.19c6.91,-8.37 8.73,-14.19 8.73,-31.66 0,-49.49 -2.91,-50.95 -120.09,-50.95l-90.97 0 0 -32.02c-0.36,-17.47 -1.09,-68.77 -2.18,-114.63l-2.18 -82.6 24.02 0 24.02 0 0 21.47c0,26.2 5.46,33.11 25.47,33.11 12.74,0 14.19,1.09 15.28,9.82 0.73,8.01 2.91,10.19 10.19,10.19 7.28,0 9.46,-2.18 10.19,-10.19 1.09,-8.73 2.55,-9.82 15.28,-9.82 10.55,0 15.65,-2.18 21.11,-9.1 6.19,-7.64 10.19,-9.1 26.56,-9.1 11.65,0.37 22.56,2.55 26.56,5.46 8.37,6.55 57.13,7.64 68.05,1.82 8.01,-4.37 9.83,-24.75 2.55,-32.02 -6.55,-6.55 -61.5,-5.82 -70.6,1.09 -4,3.27 -15.28,5.1 -27.66,5.46 -19.65,0 -21.11,-0.36 -21.11,-8.73 0,-8.01 1.82,-8.73 21.83,-10.19 17.83,-1.46 24.02,-3.27 32.02,-11.28 9.46,-9.46 9.83,-11.65 10.92,-53.49 1.46,-42.21 1.09,-43.67 -8.01,-52.76 -5.09,-5.1 -12.74,-9.1 -17.47,-9.1 -132.46,-1.09 -338.06,-1.46 -344.97,-0.73l0 -0zm348.61 23.29c2.55,2.55 4.37,16.37 4.37,36.02 0,49.85 6.55,46.94 -109.17,47.31 -53.13,0.37 -98.61,1.46 -100.8,2.18 -3.64,1.46 -4.73,37.12 -4.73,161.57l0 159.75 -46.94 0 -46.58 0 -2.55 -37.84c-1.46,-21.11 -2.18,-77.87 -1.82,-126.27 0.73,-87.7 0.73,-88.06 -7.28,-94.97 -5.1,-3.64 -14.19,-6.55 -22.56,-6.55l-14.19 0 0 -70.23c0,-38.94 1.09,-71.69 2.55,-72.78 1.09,-1.46 79.33,-2.55 173.94,-2.55 128.45,0 172.48,1.09 175.76,4.37l0 0zm0.73 362.8c4,8.01 4.73,29.11 1.46,38.21 -1.09,3.27 -4.37,5.82 -7.28,5.82 -4,0 -5.09,-6.19 -5.09,-25.47 0,-25.47 3.64,-31.66 10.92,-18.56l0 0z"/>
  <path class="fil0" d="M69.14 37.86c-14.19,5.82 -21.47,14.19 -24.02,28.02 -5.82,30.93 25.11,53.49 54.58,40.39 9.1,-4.37 20.38,-22.92 20.38,-34.21 0,-11.65 -11.65,-28.02 -23.65,-33.11 -14.19,-5.82 -14.92,-5.82 -27.29,-1.09l0 0z"/>
  <path class="fil0" d="M114.26 272.2c-1.46,3.28 0,8.37 2.91,11.28 7.28,7.28 18.19,2.55 16.74,-7.28 -1.46,-9.46 -16.38,-12.74 -19.65,-4l0 0z"/>
  <path class="fil0" d="M116.45 315.87c-6.55,7.64 -1.82,17.1 8.01,15.65 9.46,-1.09 13.46,-13.1 5.82,-17.83 -6.55,-4.37 -8.73,-4 -13.83,2.18l0 0z"/>
  <path class="fil0" d="M114.26 362.81c-3.64,9.46 1.46,17.47 10.19,16.01 6.19,-0.73 8.37,-3.64 8.37,-10.19 0,-6.55 -2.18,-9.46 -8.37,-10.19 -4.73,-0.73 -9.1,1.09 -10.19,4.37l0 0z"/>
  <path class="fil0" d="M216.15 246.73c-4,9.46 0.73,46.94 7.28,59.68 17.1,32.75 73.51,38.57 102.62,10.92 6.19,-6.19 16.74,-13.83 23.65,-17.1 13.83,-6.91 21.47,-19.29 21.47,-35.3 0,-21.47 -0.36,-21.47 -79.69,-22.92 -65.87,-1.46 -73.14,-1.09 -75.33,4.73l-0 0zm140.46 20.38c0,9.1 -6.19,21.47 -10.92,21.47 -2.18,0 -3.64,-6.55 -3.64,-14.55 0,-12.01 1.09,-14.56 7.28,-14.56 5.1,0 7.28,2.55 7.28,7.64l-0 0z"/>
 </g>
</svg>
