<?xml version="1.0" encoding="UTF-8"?>
<!DOCTYPE svg PUBLIC "-//W3C//DTD SVG 1.1//EN" "http://www.w3.org/Graphics/SVG/1.1/DTD/svg11.dtd">
<!-- Creator: CorelDRAW -->
<svg xmlns="http://www.w3.org/2000/svg" xml:space="preserve" version="1.1" style="shape-rendering:geometricPrecision; text-rendering:geometricPrecision; image-rendering:optimizeQuality; fill-rule:evenodd; clip-rule:evenodd"
viewBox="0 0 6202.04 5426.78"
 xmlns:xlink="http://www.w3.org/1999/xlink"
 xmlns:xodm="http://www.corel.com/coreldraw/odm/2003">
 <defs>
  <style type="text/css">
   <![CDATA[
    .fil1 {fill:none}
    .fil0 {fill:#FABC76}
   ]]>
  </style>
 </defs>
 <g id="Camada_x0020_1">
  <metadata id="CorelCorpID_0Corel-Layer"/>
  <path class="fil0" d="M-0 4729.66l0 101.4c172.36,147.78 310.85,331.71 356.72,367.27 265.78,206.08 355.99,166.83 510.67,228.45l4208.84 0c111.42,-44.38 195.72,-39.29 321.67,-106.24 284.74,-151.35 289.87,-245.81 437.13,-390.13 52.6,-51.55 186.14,-164.68 60.32,-254.65 -80.98,-57.91 -1447.94,-28.09 -1664.16,-26.05 258.49,-261.89 226.29,-236.5 523.44,-307.85 191.91,-46.08 447.68,-132.64 615.89,-210.94 590.63,-274.91 626.11,-362.54 831.51,-792.43l0 -243.51c-49.28,-108 -37.47,-188.57 -117.05,-290.09 -239.75,-305.84 -580.67,-222.9 -916.85,-154.63 0.84,-194.82 15.87,-334.49 -102.1,-454.96 -99.67,-101.78 -213.3,-126.91 -387.89,-127.61 -353.19,-1.41 -707.01,0.62 -1060.29,0.62 -298.31,0 -2454.96,-44 -2624.38,36.4 -375.24,178.07 -210.36,966.41 -128.11,1267.72 165.59,606.6 439.6,888.21 843.36,1276.37 -302.53,0.61 -605.1,0.15 -907.64,0.15 -293.11,0 -703.39,-51.39 -801.1,80.69zm4775.16 -663.59c296.45,-58.64 644.15,-221.71 844.06,-359.83 518.47,-358.19 423.36,-989.19 -242.63,-836.54 -290.76,66.65 -202.37,48.16 -257.63,335.23 -75.75,393.55 -206.92,559 -343.8,861.13zm-3741.49 1103.28l3876.28 0c264.43,0 502.63,-104.31 578.93,-261.43l-5034.13 0.85c76.89,157.47 313.08,260.58 578.93,260.58zm73.15 -2826.64c-229.63,116.4 9.22,1018.47 125.13,1284.14 152.2,348.87 441.32,673.26 693.96,855.53 240.81,173.73 233.82,166.87 606.58,166.6 258.42,-0.19 516.85,-0.01 775.26,-0.01 474.55,0.01 562.37,32.07 1060.56,-486.61 233.55,-243.15 435.94,-686.3 504.7,-1046.9 26.33,-138.06 72.07,-611.51 17.99,-720.4 -69.92,-140.75 -554.14,-66.73 -704.62,-66.73 -338.96,0 -3000.59,-25.65 -3079.56,14.38z"/>
  <path class="fil1" d="M6202.04 3338.5c-205.4,429.89 -240.88,517.52 -831.51,792.43 -168.22,78.3 -423.99,164.86 -615.89,210.94 -297.15,71.36 -264.95,45.97 -523.44,307.85 216.22,-2.04 1583.18,-31.86 1664.16,26.05 125.82,89.97 -7.72,203.1 -60.32,254.65 -147.26,144.31 -152.39,238.77 -437.13,390.13 -125.95,66.95 -210.25,61.85 -321.67,106.24l1125.81 0"/>
  <path class="fil0" d="M2376.85 0l-102.16 0c-168.8,143.22 19.63,244.33 43.7,444.01 31.59,262.08 -77.74,327.98 -167.17,493.25 -174.73,322.9 -26.4,1030.44 266.55,834.47 96.91,-150.34 -70.1,-212.31 -87.16,-430.3 -31.26,-399.67 580.82,-755.74 46.23,-1341.42z"/>
  <path class="fil0" d="M3927.35 0l-102.91 0c-172.32,193.86 14.99,199.42 44.46,444.01 31.59,262.1 -77.74,327.97 -167.17,493.25 -174.74,322.9 -26.4,1030.44 266.54,834.47 96.91,-150.34 -70.1,-212.31 -87.16,-430.3 -31.26,-399.67 580.83,-755.74 46.23,-1341.42z"/>
  <path class="fil0" d="M3151.35 0l-102.17 0c-176.58,197.65 16.08,199.69 44.56,444.77 30.63,263.62 -79.85,325.61 -168.45,490.9 -169.74,316.68 -33.67,1032.29 267.74,836.05 94.26,-154.47 -71.37,-208.89 -88.01,-429.79 -17.99,-238.82 66.24,-295.79 151.27,-438.07 171.39,-286.78 108.27,-742.59 -104.94,-903.86z"/>
 </g>
</svg>
