<svg xmlns="http://www.w3.org/2000/svg" version="1.1" xmlns:xlink="http://www.w3.org/1999/xlink" width="70" height="70" x="0" y="0" viewBox="0 0 475.898 475.898" style="enable-background:new 0 0 512 512" xml:space="preserve" class=""><g><path d="m467.127 321.889-35.211 9.127 3.01 11.615 15.117-3.918c-35.813 59.653-101.769 96.764-171.92 95.522-45.47-.79-89.517-17.463-124.028-46.949l-7.795 9.123c36.625 31.292 83.366 48.986 131.614 49.824 1.225.021 2.439.031 3.661.031 38.651 0 76.309-10.64 109.118-30.865 28.771-17.734 52.705-42.072 69.893-70.921l3.695 14.257 11.617-3.01-8.771-33.836zM285.148 29.666c-41.935-.735-82.608 10.987-117.577 33.881-31.865 20.862-57.197 49.711-73.657 83.771l-4.269-13.002-11.401 3.742 10.901 33.21 34.561-11.345-3.743-11.401-15.804 5.188C136.717 85.141 205.386 41.634 281.472 41.634a200.082 200.082 0 0 1 18.969.903l1.143-11.945a212.367 212.367 0 0 0-16.436-.926zM352.919 55.787a195.194 195.194 0 0 1 15.337 6.804l5.786-11.661a209.07 209.07 0 0 0-16.361-7.259l-4.762 12.116zM320.765 46.26a195.395 195.395 0 0 1 16.282 4.068l3.697-12.482a208.64 208.64 0 0 0-17.372-4.34l-2.607 12.754zM418.577 80.705l-8.558 9.809a197.81 197.81 0 0 1 12.171 11.571l9.364-9.044a211.064 211.064 0 0 0-12.977-12.336zM382.953 70.691a196.477 196.477 0 0 1 13.956 9.332l7.693-10.503a210.154 210.154 0 0 0-14.883-9.951l-6.766 11.122zM103.04 271.15h13.02v13.02h-13.02zM126.55 271.15h13.02v13.02h-13.02zM231.41 271.15h13.02v13.02h-13.02zM254.92 271.15h13.02v13.02h-13.02z" fill="#000000" opacity="1" data-original="#000000" class=""></path><path d="M281.334 67.952c-38.663 0-76.517 13.321-106.583 37.511-29.616 23.826-50.631 57.223-59.172 94.037l11.689 2.712c5.636-24.289 16.588-46.101 31.464-64.349 19.094 11.572 39.254 20.392 60.077 26.312a231.91 231.91 0 0 0-11.236 55.797l-25.712-53.026a7.393 7.393 0 0 0-6.611-4.141h-20.772a7.333 7.333 0 0 0-5.605 2.597 7.339 7.339 0 0 0-1.644 5.955v-.001l13.036 78.607h-36.63a159.64 159.64 0 0 1-.454-11.868h-12c0 3.945.153 7.917.428 11.868H85.465l-25.258-43.071a7.546 7.546 0 0 0-6.483-3.713H37.782a7.504 7.504 0 0 0-5.724 2.645 7.497 7.497 0 0 0-1.696 6.074l6.17 38.064h-5.008a7.399 7.399 0 0 0-5.326 2.279 7.337 7.337 0 0 0-2.016 5.384c.376 8.03 3.461 15.892 8.985 23.029l-11.453 29.317a7.85 7.85 0 0 0 .819 7.287c1.403 2.055 3.706 3.281 6.158 3.281h15.634a7.45 7.45 0 0 0 5.608-2.568l13.962-16.021c6.529 2.234 13.133 3.402 19.402 3.402h41.844a169.606 169.606 0 0 0 12.875 24.305l-10.241 21.508a7.304 7.304 0 0 0 .421 7.081 7.31 7.31 0 0 0 6.214 3.427h20.45c2.153 0 4.19-.938 5.589-2.578l2.572-3.012c11.885-7.115 34.66-19.188 62.803-26.498 12.782 29.961 29.503 52.457 41.241 66.016a157.865 157.865 0 0 1-90.658-39.17l-7.965 8.976c31.133 27.625 71.225 42.84 112.891 42.84 93.816 0 170.143-76.33 170.143-170.152-.001-93.817-76.326-170.143-170.142-170.143zm114.852 61.549c-18.04 10.633-37.104 18.688-56.822 23.984-12.854-32.928-30.917-57.568-44.415-72.94 39.734 3.405 75.319 21.559 101.237 48.956zm-68.603 26.793a220.277 220.277 0 0 1-38.929 4.643 219.35 219.35 0 0 1-54.03-5.128c13.732-34.509 33.409-59.258 46.219-72.945 12.838 13.614 32.831 38.535 46.74 73.43zm-160.772-27.591c25.802-27.048 60.962-44.554 99.897-48.084-13.396 15.377-31.134 39.777-43.81 72.242-19.403-5.438-38.217-13.542-56.087-24.158zm-6.847 46.101h12.372l36.443 75.158h-36.351l-12.464-75.158zM51.155 215.179l20.398 34.785H48.688l-5.638-34.785h8.105zm-8.921 93.363h-7.077l11.438-29.281h21.159l-25.52 29.281zm41.064-15.189c-3.454.001-7.067-.467-10.725-1.356l10.374-11.902c2.004-2.301 2.476-5.596 1.202-8.395-1.246-2.738-3.856-4.439-6.812-4.439H43.489a7.387 7.387 0 0 0-4.001 1.188c-1.074-1.987-1.986-4.151-2.581-6.485h217.596c12.557 0 30.536 9.24 30.536 15.695 0 2.857-3.991 6.791-10.168 10.021-6.485 3.395-14.672 5.674-20.368 5.674h-37.926l4.445-5.205a7.375 7.375 0 0 0 1.083-7.85 7.37 7.37 0 0 0-6.673-4.271h-47.239a7.386 7.386 0 0 0-6.635 4.188l-6.255 13.137H83.298zm66.292 12.001-5.396 11.332a157.41 157.41 0 0 1-5.892-11.332h11.288zm3.126 44.321h-10.938l29.352-61.645h34.216l-52.63 61.645zm31.018-17.851 22.598-26.47h48.171c7.577 0 17.756-2.764 25.932-7.04 10.708-5.601 16.604-12.938 16.604-20.655 0-16.91-27.931-27.695-42.536-27.695h-32.387l-3.147-6.49a201.565 201.565 0 0 1-.078-5.522c0-2.208.032-4.453.095-6.669.7-23.818 5.112-45.254 11.472-64.128a231.154 231.154 0 0 0 58.548 5.779 232.32 232.32 0 0 0 42.769-5.248c6.373 18.895 10.794 40.353 11.496 64.203l.001.064H229.43v12h113.861c-.677 26.953-6.243 50.99-13.988 71.71a231.625 231.625 0 0 0-55.137-4.998c-15.362.454-30.649 2.425-45.433 5.856-17.008 3.917-32.343 9.62-44.999 15.303zm53.987-4.963a220.244 220.244 0 0 1 36.801-4.204c16.863-.5 33.719.949 50.214 4.305-13.942 32.039-32.414 54.867-43.333 66.646-10.628-11.363-29.487-34.306-43.682-66.747zm57.987 68.726c11.823-13.764 28.256-36.146 40.883-65.871 18.769 4.918 37.051 12.348 54.499 22.125-25.224 24.349-58.494 40.405-95.382 43.746zm103.95-52.692c-18.715-10.785-38.391-18.971-58.623-24.407 7.935-21.603 13.591-46.585 14.258-74.538h45.38v-12h-45.4l-.009-.417c-.729-24.749-5.261-47.048-11.811-66.731 21.127-5.772 41.526-14.531 60.776-26.112 20.821 25.693 33.762 58.016 35.114 93.261h-26.252v12h26.264c-1.385 37.872-16.148 72.385-39.697 98.944z" fill="#000000" opacity="1" data-original="#000000" class=""></path><path d="M97.98 212.17h46.896v12H97.98zM0 349.68h15.964v12H0zM29.02 349.68h73.03v12H29.02z" fill="#000000" opacity="1" data-original="#000000" class=""></path></g></svg>