<svg xmlns="http://www.w3.org/2000/svg" version="1.1" xmlns:xlink="http://www.w3.org/1999/xlink" width="100" height="100" x="0" y="0" viewBox="0 0 512 512" style="enable-background:new 0 0 512 512" xml:space="preserve" fill-rule="evenodd" class=""><g><path d="M216.851 355.124c-3.3 0-6-2.7-6-6V162.926c0-3.3 2.7-6 6-6H505.95c3.3 0 6 2.7 6 6s-2.7 6-6 6H222.851v180.099c0 3.4-2.7 6.1-6 6.1z" fill="#fff" opacity="1" data-original="#fff" class=""></path><path d="M505.95 355.124H216.851c-2.4 0-4.6-1.5-5.5-3.7-.9-2.2-.4-4.8 1.3-6.5l96-96-95.7-81.399c-2.5-2.1-2.8-5.9-.7-8.5 2.1-2.5 5.9-2.8 8.5-.7l100.598 85.4s.1 0 .1.1l35.1 29.8c2.8 2.4 7 2.4 9.8 0l135.8-115.299c1.8-1.5 4.3-1.9 6.4-.9 2.1 1 3.5 3.1 3.5 5.4v186.1c-.099 3.499-2.799 6.199-6.1 6.199zm-274.599-12H499.95V175.925l-125.9 106.9c-7.3 6.2-18 6.2-25.4 0l-30.9-26.2-86.399 86.499z" fill="#fff" opacity="1" data-original="#fff" class=""></path><path d="M505.95 355.124c-1.5 0-3.1-.6-4.2-1.8l-100.7-100.598c-2.3-2.3-2.3-6.1 0-8.5 2.3-2.3 6.1-2.3 8.5 0l100.6 100.598c2.3 2.3 2.3 6.1 0 8.5-1.1 1.2-2.7 1.8-4.2 1.8zM158.451 210.226H5.951c-3.3 0-6-2.7-6-6s2.7-6 6-6h152.5c3.3 0 6 2.7 6 6s-2.7 6-6 6zM158.451 298.725H5.951c-3.3 0-6-2.7-6-6s2.7-6 6-6h152.5c3.3 0 6 2.7 6 6s-2.7 6-6 6zM190.851 254.424H38.452c-3.3 0-6-2.699-6-5.999s2.7-6 6-6h152.5c3.3 0 6 2.7 6 6s-2.8 5.999-6.1 5.999z" fill="#fff" opacity="1" data-original="#fff" class=""></path></g></svg>