<?xml version="1.0" encoding="UTF-8"?>
<!DOCTYPE svg PUBLIC "-//W3C//DTD SVG 1.1//EN" "http://www.w3.org/Graphics/SVG/1.1/DTD/svg11.dtd">
<!-- Creator: CorelDRAW -->
<svg xmlns="http://www.w3.org/2000/svg" xml:space="preserve" version="1.1" style="shape-rendering:geometricPrecision; text-rendering:geometricPrecision; image-rendering:optimizeQuality; fill-rule:evenodd; clip-rule:evenodd"
viewBox="0 0 21000 29700"
 xmlns:xlink="http://www.w3.org/1999/xlink"
 xmlns:xodm="http://www.corel.com/coreldraw/odm/2003">
 <defs>
  <style type="text/css">
   <![CDATA[
    .fil1 {fill:none}
    .fil0 {fill:#10111F}
    .fil2 {fill:#C59055}
   ]]>
  </style>
 </defs>
 <g id="Camada_x0020_1">
  <metadata id="CorelCorpID_0Corel-Layer"/>
  <g id="_557665848">
   <path class="fil0" d="M4351.71 12741.71c75.08,0 427.76,-16.02 465.12,8.98 22.59,44.33 -5.14,376.34 8.71,464.32 38.62,22.45 108.87,29.65 164.42,38.39 36.33,5.73 46.54,13.59 79.59,19.68l443.3 82.97c45.99,7.46 83.4,21.03 168.73,33.36 39.44,5.7 90.22,21.79 175.03,34.21 39.82,5.84 46.97,13.93 82.99,20.24 31.53,5.52 59.6,9.04 92.13,14 33.9,5.15 48.55,14.79 82.57,20.24 33.78,5.42 58.65,8.08 92.45,14.07 32.79,5.81 43.53,14.07 81.46,19.88l299.99 58.04c36.79,12.58 93.6,13.53 135.78,24.44l1037.11 205.49c61.41,19.19 117.86,17.73 177.28,32.76 27.92,7.06 44.22,13.59 81.5,19.42l349.21 68.55c25.82,3.89 62.93,7.42 87.03,14.6 78.4,23.34 129.75,21.48 172.91,35.94 97.37,32.62 255.38,36.65 349.14,68.74 47.3,16.2 115.99,16.89 168.28,34.14l609.74 118.87c71.77,11.34 81.33,19.87 174.48,34.19l263.16 54.17c23.9,6.69 61.07,10.69 86.26,14.49l88.92 19.05c68.33,10.45 412.75,-75.73 527.42,-93.12 59.33,-9 107.59,-24.4 174.41,-34.47l249.76 -52.8c25.15,-6.67 65.19,-11.08 93.23,-15.35l254.93 -54.37c30.59,-6.27 64.48,-10.12 94.88,-14.86l248.39 -53.53c32.05,-5.79 63.16,-9.49 94.81,-14.61 35.06,-5.67 45.02,-14.23 79.67,-19.96 32.37,-5.35 62.94,-9.01 94.8,-14.56 33.71,-5.87 43.57,-14.19 81.71,-20.12l1125.94 -221.66c99.28,-31.62 249.14,-39.71 346.3,-71.72 42.35,-13.95 236.59,-43.76 300.78,-56.27 49.99,-9.74 31.09,-12.14 128.29,-27.37 78.21,-12.25 74.98,-19.63 173.9,-34.52 66.21,-9.96 77.66,-19.77 174.95,-34.5 58.08,-8.79 74.16,-19.25 169.12,-33.7 60.54,-9.22 55.22,-15.34 86.32,-21.09 30.91,-5.7 58.93,-8.91 88.05,-13.41l174.07 -34.55c47.65,-7.3 45.74,-14.81 87.96,-21.18l174.39 -34.42c29.18,-4.26 59.03,-8.52 89.09,-13.61 36.56,-6.19 40.6,-14.27 86.7,-21.04 28.99,-4.25 58.53,-7.93 88.22,-13.6 41.56,-7.93 7.32,-9 86.64,-20.92l163.69 -44.82c4.73,-73.93 -12.65,-424.36 7.93,-457.09 29.55,-22.49 450.92,-8.16 524.68,-8.16l0 -3197.67 -12088.32 0 0 3195.82z"/>
   <path class="fil1" d="M16440.03 14402.8l0 -1594.12c-71.82,0.4 -421.78,-9.13 -458.71,9.06 -25.16,71.5 13.7,344.24 -7.2,430.47 -8.81,36.36 -27.79,32.98 -68.16,41.1 -27.06,5.44 -53.51,15.93 -83.82,21.1 -31.33,5.34 -67.86,7.47 -95.97,14.9 -32,8.46 -48.19,14.27 -88.01,20.23 -201.48,30.14 -508.68,108.75 -725.7,143.36l-631.34 129.03c-56.48,8.9 -50.68,13.73 -87.14,20.27 -30.44,5.47 -61.71,9.94 -93.47,15.36l-269.11 56.1c-90.65,14.72 -99.03,10.9 -179.94,35.55 -35.15,10.71 -117.08,15.56 -141.77,23.02 -80.38,24.26 -102.77,19.31 -136.81,30.08l-445.97 91.02c-14.8,2.48 -40.64,9.89 -43.91,10.99l-230.79 46.03c-33.43,5.5 -62.16,9.84 -96.1,14.97l-178.19 37.23c-59.9,21 -259.65,48.61 -352.61,74.77 -40.23,11.32 -111.21,14.7 -145.08,25.28 -91.37,28.54 -151.5,22.85 -224.86,46.26 -26.21,8.36 -63.59,12.21 -92.4,16.42 -53.34,7.79 -89.11,21.7 -181.43,35.53 -38.53,5.77 -44.5,15.76 -81.94,21.22 -32.77,4.79 -65.63,8.29 -98.47,14.37 -27.94,5.18 -46.92,15.18 -83.87,21.03 -177.59,28.11 -617.88,136.13 -741.92,133.03 -41.19,-1.03 -51.35,-11.1 -93.87,-16.22 -102.94,-12.4 -135.43,-28.67 -181.51,-35.28l-274.83 -49.9c-35.26,-6.43 -52.74,-15.32 -91.97,-21.75 -27.95,-4.59 -64.45,-7.74 -93.73,-15.03 -64.23,-15.98 -111.48,-21.94 -184.09,-34.68 -9.03,-1.58 -28.05,-6.97 -40.51,-11.17 -25.25,-8.49 -220.21,-37.7 -272.57,-55.5l-9.61 -3.82c-52.36,-18.53 -148.45,-14.81 -220.77,-39.25l-174.96 -39.19c-31.58,-5.41 -60.7,-8.65 -92.83,-14.24 -36.75,-6.4 -45.17,-14.66 -88.36,-21.04 -92.4,-13.66 -118.69,-25.31 -180.42,-35.35l-179.03 -35.53c-28.6,-5 -64.68,-9.38 -94.6,-14.76 -32.56,-5.85 -49.92,-14.93 -84.53,-20.57l-362.21 -70.49c-71.46,-11.16 -116.11,-25.25 -186.61,-36.25 -37.89,-5.92 -53.31,-15.12 -87.14,-20.85l-276.84 -49.79c-38.89,-5.62 -50.93,-14.77 -84.28,-20.82 -33.29,-6.04 -60.3,-9.08 -92.14,-14.65l-361.72 -71.88c-50.02,-14.4 -129.44,-20.62 -178.82,-36.72l-456.68 -89.38c-37.87,-5.41 -52.68,-14.8 -86.48,-20.84 -29.35,-5.25 -64.08,-9.25 -94.71,-14.44 -31.36,-5.31 -51.77,-15.56 -86.26,-20.88l-182.82 -35.06c-95.39,-14.34 -267.41,-57.69 -359.17,-70.64 -30.63,-4.32 -64.28,-9.1 -90.05,-17.55l-270.14 -54.82c-17.64,-92.73 14.12,-407.34 -11.37,-462.73 -49.68,-15.83 -321.88,-7.44 -398,-7.89l0 1595.3"/>
   <path class="fil2" d="M9842.74 10456.56c-31.62,33.65 -140.29,56.03 -225.5,104.63 -50,28.51 -91.5,48.07 -140.04,82.76 -99.88,71.39 -86.52,38.62 -186.45,157.75l-42 66.62c-5.36,10.91 -29.44,67.63 -31.14,80.49 -9.18,69.32 14.72,123.97 61.18,159 51.01,38.45 293.52,67.09 377.07,74.96 168.91,15.91 415.82,-30.65 580.77,-81.52 216.6,-66.81 279.1,-99.51 463.63,-212.12 12.53,-7.64 22.65,-16.66 31.08,-23.18 43.16,-33.36 82.58,-52.81 127.97,-94.35 21.1,-19.31 77.63,-70.75 100.56,-69.69 10.57,53.33 2.68,193.01 -3.42,250.71 -1.5,14.22 -2.91,37.67 -5.58,56.02 -3.48,24.04 -7.79,20.6 -14.2,50.63 -6.18,28.93 -15.37,77.6 -9.89,107.87 42.62,9.68 64.55,-21.92 98.94,-39.91 63.63,-33.27 112.87,-87.63 159.39,-138.01 42.85,-46.4 31.24,-37.46 64.73,-83.49l109.37 -187.09c72.37,-138.73 118.31,-336.56 -58.35,-412.31 -77.66,-33.29 -162.15,6.77 -225.78,47.19 -51.31,32.61 -36.86,44.72 -97.83,6.97 -92.61,-57.34 -295.63,-53.13 -399.02,-50.48 -72.26,1.86 -208.54,4.9 -275.44,19.65l-123.81 24.89c-68.71,12.93 -173.59,66.12 -234.49,47.38 -94.28,-29 -248.52,-57.63 -306.86,-138.19 -30.38,-41.95 -27.83,-86.24 -0.22,-127.22 32.66,-48.46 119.67,-97.64 170.98,-112.66 81.1,-23.75 328.7,-10.8 285.89,124.33 -10.4,32.85 -45.43,63.49 -78.64,69.94 -49.62,9.63 -94.65,-4.16 -139.16,-9.95 10.13,85.21 201.86,67.1 291.54,14.08 107.1,-63.31 66.91,-138.47 -12.73,-192.95 -84.68,-57.93 -267.92,-62.02 -373.06,-44.66 -249.56,41.22 -466.51,294.71 -159.57,401.78 55.5,19.36 18.61,17.83 106.89,34.44l100.29 27.73c10.29,4.57 6.96,2.81 12.9,7.96z"/>
   <path class="fil2" d="M4351.71 12807.5c76.12,0.45 348.32,-7.94 398,7.89 25.49,55.39 -6.27,370 11.37,462.73l270.14 54.82c25.77,8.45 59.42,13.23 90.05,17.55 91.76,12.95 263.78,56.3 359.17,70.64l182.82 35.06c34.49,5.32 54.9,15.57 86.26,20.88 30.63,5.19 65.36,9.19 94.71,14.44 33.8,6.04 48.61,15.43 86.48,20.84l456.68 89.38c49.38,16.1 128.8,22.32 178.82,36.72l361.72 71.88c31.84,5.57 58.85,8.61 92.14,14.65 33.35,6.05 45.39,15.2 84.28,20.82l276.84 49.79c33.83,5.73 49.25,14.93 87.14,20.85 70.5,11 115.15,25.09 186.61,36.25l362.21 70.49c34.61,5.64 51.97,14.72 84.53,20.57 29.92,5.38 66,9.76 94.6,14.76l179.03 35.53c61.73,10.04 88.02,21.69 180.42,35.35 43.19,6.38 51.61,14.64 88.36,21.04 32.13,5.59 61.25,8.83 92.83,14.24l174.96 39.19c72.32,24.44 168.41,20.72 220.77,39.25l9.61 3.82c52.36,17.8 247.32,47.01 272.57,55.5 12.46,4.2 31.48,9.59 40.51,11.17 72.61,12.74 119.86,18.7 184.09,34.68 29.28,7.29 65.78,10.44 93.73,15.03 39.23,6.43 56.71,15.32 91.97,21.75l274.83 49.9c46.08,6.61 78.57,22.88 181.51,35.28 42.52,5.12 52.68,15.19 93.87,16.22 124.04,3.1 564.33,-104.92 741.92,-133.03 36.95,-5.85 55.93,-15.85 83.87,-21.03 32.84,-6.08 65.7,-9.58 98.47,-14.37 37.44,-5.46 43.41,-15.45 81.94,-21.22 92.32,-13.83 128.09,-27.74 181.43,-35.53 28.81,-4.21 66.19,-8.06 92.4,-16.42 73.36,-23.41 133.49,-17.72 224.86,-46.26 33.87,-10.58 104.85,-13.96 145.08,-25.28 92.96,-26.16 292.71,-53.77 352.61,-74.77l178.19 -37.23c33.94,-5.13 62.67,-9.47 96.1,-14.97l230.79 -46.03c3.27,-1.1 29.11,-8.51 43.91,-10.99l445.97 -91.02c34.04,-10.77 56.43,-5.82 136.81,-30.08 24.69,-7.46 106.62,-12.31 141.77,-23.02 80.91,-24.65 89.29,-20.83 179.94,-35.55l269.11 -56.1c31.76,-5.42 63.03,-9.89 93.47,-15.36 36.46,-6.54 30.66,-11.37 87.14,-20.27l631.34 -129.03c217.02,-34.61 524.22,-113.22 725.7,-143.36 39.82,-5.96 56.01,-11.77 88.01,-20.23 28.11,-7.43 64.64,-9.56 95.97,-14.9 30.31,-5.17 56.76,-15.66 83.82,-21.1 40.37,-8.12 59.35,-4.74 68.16,-41.1 20.9,-86.23 -17.96,-358.97 7.2,-430.47 36.93,-18.19 386.89,-8.66 458.71,-9.06l0 -65.12c-73.76,0 -495.13,-14.33 -524.68,8.16 -20.58,32.73 -3.2,383.16 -7.93,457.09l-163.69 44.82c-79.32,11.92 -45.08,12.99 -86.64,20.92 -29.69,5.67 -59.23,9.35 -88.22,13.6 -46.1,6.77 -50.14,14.85 -86.7,21.04 -30.06,5.09 -59.91,9.35 -89.09,13.61l-174.39 34.42c-42.22,6.37 -40.31,13.88 -87.96,21.18l-174.07 34.55c-29.12,4.5 -57.14,7.71 -88.05,13.41 -31.1,5.75 -25.78,11.87 -86.32,21.09 -94.96,14.45 -111.04,24.91 -169.12,33.7 -97.29,14.73 -108.74,24.54 -174.95,34.5 -98.92,14.89 -95.69,22.27 -173.9,34.52 -97.2,15.23 -78.3,17.63 -128.29,27.37 -64.19,12.51 -258.43,42.32 -300.78,56.27 -97.16,32.01 -247.02,40.1 -346.3,71.72l-1125.94 221.66c-38.14,5.93 -48,14.25 -81.71,20.12 -31.86,5.55 -62.43,9.21 -94.8,14.56 -34.65,5.73 -44.61,14.29 -79.67,19.96 -31.65,5.12 -62.76,8.82 -94.81,14.61l-248.39 53.53c-30.4,4.74 -64.29,8.59 -94.88,14.86l-254.93 54.37c-28.04,4.27 -68.08,8.68 -93.23,15.35l-249.76 52.8c-66.82,10.07 -115.08,25.47 -174.41,34.47 -114.67,17.39 -459.09,103.57 -527.42,93.12l-88.92 -19.05c-25.19,-3.8 -62.36,-7.8 -86.26,-14.49l-263.16 -54.17c-93.15,-14.32 -102.71,-22.85 -174.48,-34.19l-609.74 -118.87c-52.29,-17.25 -120.98,-17.94 -168.28,-34.14 -93.76,-32.09 -251.77,-36.12 -349.14,-68.74 -43.16,-14.46 -94.51,-12.6 -172.91,-35.94 -24.1,-7.18 -61.21,-10.71 -87.03,-14.6l-349.21 -68.55c-37.28,-5.83 -53.58,-12.36 -81.5,-19.42 -59.42,-15.03 -115.87,-13.57 -177.28,-32.76l-1037.11 -205.49c-42.18,-10.91 -98.99,-11.86 -135.78,-24.44l-299.99 -58.04c-37.93,-5.81 -48.67,-14.07 -81.46,-19.88 -33.8,-5.99 -58.67,-8.65 -92.45,-14.07 -34.02,-5.45 -48.67,-15.09 -82.57,-20.24 -32.53,-4.96 -60.6,-8.48 -92.13,-14 -36.02,-6.31 -43.17,-14.4 -82.99,-20.24 -84.81,-12.42 -135.59,-28.51 -175.03,-34.21 -85.33,-12.33 -122.74,-25.9 -168.73,-33.36l-443.3 -82.97c-33.05,-6.09 -43.26,-13.95 -79.59,-19.68 -55.55,-8.74 -125.8,-15.94 -164.42,-38.39 -13.85,-87.98 13.88,-419.99 -8.71,-464.32 -37.36,-25 -390.04,-8.98 -465.12,-8.98l0 65.79z"/>
   <path class="fil2" d="M9545.19 11636.12c0.33,77.71 96.71,175.68 153.91,225.96 133.14,117.01 305.06,237.17 496.45,273.18 224.25,42.19 347.19,25.23 562.08,-35.08l178.64 -78.2 153.34 -102.78c89.25,-73.85 114.91,-92.9 184.52,-200.45 15.87,-24.52 29.75,-36.16 51.08,-76.99 66.99,-128.23 105.86,-243.1 114.22,-395.68 4.21,-76.93 -2.4,-166.79 -14.06,-241.29 -5.08,-32.47 -18.5,-61.47 -26.6,-101.76 -6.3,-31.31 -20.34,-82.38 -56.41,-40.57 -12.82,14.85 -44.04,74.67 -93.59,129.54 -48.12,53.28 -81,93.22 -144.84,138.89 -51.41,36.79 -90.86,72.56 -160.38,95.9 -36.53,12.26 -51.65,23.36 -94.94,33.04l-320.3 65.3c-45.66,6.71 -173.17,31.36 -204.68,50.85 -41.96,25.94 -163.04,75.56 -64.5,127.66 120.67,63.8 316.19,-0.27 460.96,-2.66 83.15,-1.38 214.75,98.17 -24.38,273.82 -226,166 -604.14,158.78 -864.2,27.96l-196.77 -125.93c-22.86,-17.05 -59.31,-40.57 -89.55,-40.71z"/>
   <path class="fil0" d="M10113.1 10463.31c0.69,25.21 10.52,44.47 31.83,54.79 26.94,13.04 35.08,3.93 60.7,7.91l10.31 2.85c1.12,0.3 3.32,0.96 4.74,1.9 -14.21,26.84 -75.9,24.93 -58.41,85.02 68.75,13.08 53.74,-27.33 213.36,-27.33 33.22,0 81.95,-1.97 104.63,16.52 2.03,47.02 -128.97,124.46 -158.37,141.8 -33.71,19.89 -70.55,33.49 -104.21,51.35l-106.4 48.57c-113.17,49.44 -371.58,115.4 -511.41,115.4 -54.95,0 -95.44,-14.54 -128.55,-38.38 -3.79,-42.46 16.04,-53.91 37.19,-79.38 31.34,-37.74 184.11,-133.71 242.83,-156.18 22.82,-8.74 20.06,-6.85 41.56,-18.68 13.8,-7.6 21.59,-10.08 37.77,-16.46 22.3,-8.79 21.79,-11.7 39.9,-20.2l150 -52.96c2.24,-0.2 14.47,-8.06 25.74,4.86 15.35,33.73 -12.56,30.15 -42.52,39.58l-228.67 101.48 -140.01 96.31c-25.98,24.81 -33.35,32.92 -23.45,67.75 39.33,9.32 171.39,-2.81 211.34,-14.28 31.47,-9.04 60.69,-12.15 96.59,-18.99 74.57,-14.2 333.21,-105.38 380.67,-158.57 15.34,-17.2 19.55,-11.54 10.96,-42.01 -56.06,-12.37 -138.8,15.8 -175.66,40.04 -70.27,46.21 -25.01,25.53 -117.53,37.33 -80.85,10.3 -136.44,53.85 -154.14,52.28 -16,-1.41 -5.67,0.99 -15.31,-5.27 7.06,-22.68 12.15,-17.45 44.95,-30.14l199.77 -97.84c23.94,-20.28 13.76,-31.16 2.1,-49.65 -5.07,-8.05 -53.22,-92.92 -55.4,-94.75 -50,-41.69 -476.7,169.02 -588.43,286.03 -21.7,22.73 -51.31,57.72 -62.97,85.71 -21.6,51.87 -1.35,86 23.37,115.83 95.78,115.58 493.72,49.68 648.39,23.06l232.2 -66.05 301.87 -142.59c56.58,-39.73 107.12,-61.15 159.32,-103.98 41.02,-33.67 62.26,-43.77 93.49,-94.54 18.71,-30.42 22.13,-92.21 0.8,-120.85 -45.44,-60.98 -124.5,-66.07 -210.33,-85.26 -102.66,-22.94 -170.61,-0.98 -271.89,8.92 -50.3,4.92 -214.22,28.1 -252.72,49.05z"/>
   <path class="fil2" d="M8614.84 12831.05c0,142.53 -14.32,328.73 62.28,457.08 20.3,34.01 73.08,104.66 100.43,129.09l27.98 26.12c82.68,72.71 157.24,-70.74 187.23,-71.21 19.98,-0.31 76.89,66.57 96.23,84.4 8.74,8.06 3.37,2.69 10.36,9.9 58.22,60.08 76.69,58.7 185.4,-46.32 21.94,-21.19 42.78,-42.95 58.23,-76.36 48.38,-104.53 44.97,-212.53 44.97,-337.31 0,-141.58 -18.77,-214.56 -76.47,-303.91 -34.94,-0.88 -121.56,36.87 -142.29,54.32 -5.58,30.02 2.07,48.04 16.99,70.58 19.29,29.13 18.28,15.78 23.61,63.85l11.93 202.85c0,74.12 -11.93,200.9 -60.32,232.13 -48.4,-3.55 -48.18,-47.64 -60.52,-91.39 -15.93,-56.47 -21.39,-31.1 -21.39,-133.99l0.02 -415.56c-27.53,-8.2 -138.71,-32.07 -154.21,-17.1 -21.15,31.66 -7.03,119.01 -7.03,162.83 0,53.81 22.32,466.68 -67.17,455.44 -27.39,-12.21 -6.5,2.44 -22.95,-21.84 -26.62,-39.28 -22.82,-58.57 -38.62,-94.14 -29.92,-67.36 8.49,-393.2 -13.09,-527.83 -28.44,-8 -53.9,-8.99 -82.89,-17.97 -26.3,-8.16 -64.76,-23.34 -75.17,6.1 -3.86,10.95 -3.54,175.14 -3.54,200.24z"/>
   <path class="fil2" d="M6571.31 12175.34c0.34,67.7 33.08,49.05 47.08,148.8 13.93,99.29 -10.3,550.14 5.94,581.11 10.44,19.91 161.57,65.97 185.74,72.03 151.14,37.85 308.22,-47.45 281.77,-209.19 -7.43,-45.43 -42.17,-94.63 -67.34,-127.5 -11.67,-15.26 -14.69,-24.77 -26.21,-38.89 36.01,-66.68 118.48,-134.79 9.28,-281.34l-79.05 -96.65c-49.34,-56.89 -82.33,-57.96 -166.94,-35.67 -36.09,-34.31 -19.43,-60.56 -89.47,-51.65 -34.7,4.41 -81.95,26.42 -100.8,38.95z"/>
   <path class="fil2" d="M11289.16 13033.42c0,67.77 -9.16,279.31 19.18,335.76 29.06,57.89 163.6,179.93 245.94,155.71 42.18,-12.41 122.85,-88.08 146.65,-123.93 12.76,-19.22 21.42,-28.1 27.63,-39.22 7.38,-13.22 11.97,-32.99 19.74,-48.86 38.28,-78.15 24.3,-251.77 24.71,-340.17 0.62,-132.84 -72.45,-173.45 -164.83,-240.44 -76.61,-55.54 -111.26,-30.58 -179.35,32.18 -79.52,73.3 -139.67,144.35 -139.67,268.97z"/>
   <path class="fil2" d="M7966.98 12790.58c0,64.33 -2.55,233.02 5.83,285.81 4.96,31.25 30.78,83.91 47.31,106.54 33.65,46.08 55.86,73.9 98.66,110.67 6.48,5.56 4.3,4.14 10.68,9.61 8.79,7.51 12.5,9.19 22.99,17.61 14.47,11.6 8.37,8.73 21.03,19.69 65.83,57.02 169.05,-37.85 207.18,-68.68 71.14,-57.49 68.78,-138.61 67.61,-251.9 -2.01,-194.73 13.37,-262.78 -111.34,-389.72 -10.63,-10.82 -8.18,-9.73 -20.08,-20.38 -43.04,-38.53 -94.6,-95.62 -138.81,-80.66 -125.23,42.38 -211.06,123.13 -211.06,261.41z"/>
   <path class="fil2" d="M7326.51 13134.03c19.85,15.89 48.84,15.2 74.91,20.22 29.32,5.66 43.39,17.81 76.61,11.33 14.41,-95.85 -12.6,-225.95 11.81,-312.25 56.39,-9.42 93.13,18.95 110.14,61.68 19.8,49.75 17.92,94.72 21.61,152.1 6.46,100.45 -28.28,194.01 178.37,182.74 7.97,-51.06 3.88,-284.49 -44.45,-362.18 -12.85,-20.65 -56.35,-63.31 -53.41,-83.6 5.05,-34.8 72.08,-28.63 72.08,-148.41 0,-75.91 -50.82,-141.46 -101.62,-190.65 -27.48,-26.61 -36.73,-47.37 -71.05,-64.63 -92.29,-46.44 -133.24,29.56 -167.78,-13.72 -57.79,-72.4 -45.57,-46.34 -146.83,-14.14 -37.14,11.81 -33.69,28.46 -14.29,59.97 50.07,81.32 45.54,181.28 46.16,277.14 0.43,65.8 -10.74,394.3 7.74,424.4z"/>
   <path class="fil2" d="M10789.45 11567.23c-67.4,-19.49 -71.01,39.04 -173.44,94.45 -61.89,33.48 -130.45,62.47 -214.04,66.07 -36.67,1.58 -97.89,1.13 -128.6,-8.53 -29.86,-9.39 -84.36,-19.46 -111.27,-30.75 -176.47,-73.98 -363.3,-242.52 -443.22,-399.84 -68.53,-134.88 -37.03,-45.66 -314.95,-96.73 -76.27,-14.01 -61.26,-37.78 -111.79,-24.21 4.42,31.08 91.8,152.4 114.71,190.2 26.31,43.4 37,50.68 66.39,88.8 50.82,65.93 142.33,157.91 212.64,212.15 9.26,7.14 14.17,8.92 23.81,16.64 32.37,25.91 61.92,45.22 92.62,62.44l79.54 42.1c65.69,40.51 143.97,49.78 207.79,62.15 26.14,5.06 35.45,12.92 63.22,14.84 120.89,8.31 178.11,-5.81 283.15,-24.35 102.34,-18.07 239.66,-84.12 306.86,-159.03 52.32,-58.32 58,-62.67 46.58,-106.4z"/>
   <path class="fil2" d="M9609.47 13542.54c37.58,2.57 115.4,8.67 145.56,-4.94 23.77,-68.04 -20.43,-592.01 25.2,-626.04 31.7,-8.12 69.36,-7.61 103.41,1.48 26.22,52.22 14.87,404.69 14.86,511.63 -0.01,141.66 -23.85,133.19 133.1,133.19 35.12,0 41.5,-2.79 41.5,-38.75l0 -559.89c0,-46.47 -19.34,-67.9 -42.16,-93.69l-97.87 -91.49c-25.9,-19.85 -31.59,-34.35 -70.66,-35.77 -78.9,-2.87 -98.85,80.74 -156.26,20.08 -41.3,-43.64 -73.82,-11.38 -111.17,7.85 -30.68,15.8 -83.73,10.69 -39.6,88.62 43.82,77.39 45.75,188.18 47.21,279.79 2.34,147.46 -3.31,186.79 -8.11,317.04 -1.9,51.52 -8.91,57.73 14.99,90.89z"/>
   <path class="fil2" d="M13230.9 12588.2l0 600.37c0,70.44 116.1,18.92 168.45,2.44l189.84 -47.45c23.58,-4.9 40.51,-10.43 58.41,-20.99 33.15,-19.54 22.01,-85.23 17.43,-133.17 -49.18,-15.45 -200.06,59.86 -264.4,47.94 -15.25,-70.32 -8.55,-60.81 -7.84,-138.83 0.4,-44.31 -6.87,-61.79 102.11,-84.41 90.31,-18.75 105.2,-9.8 105.2,-111.22 0,-107.09 -79.65,1.96 -201.98,-20.5 -19.24,-158.82 -3.03,-164.6 103.94,-198.59 29.55,-9.39 66.04,-12.92 93.6,-20.84 68.13,-19.58 61.56,-32.36 53.85,-145.62 -66.19,-11.13 -202.86,32.81 -270.41,77.15 -61.89,40.62 -148.2,103.15 -148.2,193.72z"/>
   <path class="fil2" d="M13839.68 13051.01c47.1,12.8 99.46,-13.56 134.61,-27.32 33.99,-13.29 213.76,-61.8 262.31,-82.63 38.93,-16.7 45.88,-99.54 23.93,-136.99 -51.09,-17.36 -208.12,71.95 -257.77,63.06 -9.07,-35.88 -6.5,-150.72 -2.56,-190.74 82.6,-60.44 188.88,-41.73 200.79,-102.08 5.61,-28.43 3.88,-70.36 -3.02,-98.21 -99.39,-24.19 -228.04,147.56 -200.55,-83.7 5.19,-43.68 22.7,-53.17 52.73,-68.86 104.64,-54.71 219.9,-11.2 201.96,-166.86 -7.51,-65.09 -109.43,-2.29 -178.39,14.99 -80.71,20.23 -161.97,91.68 -208.52,161.84 -21.81,32.88 -28.11,39.77 -27.66,92.62 1.02,117.78 -4.89,563.87 2.14,624.88z"/>
   <path class="fil2" d="M11002.98 13279.75c-38.57,19.28 -74.8,127.98 -121.42,133.73 -60.07,-6.99 -83.98,-74.58 -85.47,-143.71 -1.64,-76.31 -3.12,-159.92 2,-235.8 2.77,-41.16 51.25,-216.79 154.45,-64.47 35.53,52.44 29.93,98.37 86.64,59.81l57.3 -37.45c12.37,-10.13 13.95,-11.43 26.88,-18.96 2.24,-38.04 0.81,-35.08 -14.54,-58.69 -52.47,-80.71 -179.77,-210.19 -270.68,-159.94 -70.63,39.03 -170.66,123.52 -185.34,199.24 -25.43,131.25 -29.09,288.44 -0.07,422.48 14.36,66.38 90.78,122.56 141.2,163.27 77.56,62.63 126.34,40.99 213.61,-22.07 37.35,-26.99 86.75,-85.32 105.38,-125.97 14.03,-30.61 12.29,-29.84 -10.7,-52.26 -12.56,-12.25 -74.64,-54.64 -99.24,-59.21z"/>
   <path class="fil2" d="M11973.52 13202.06l2.69 268.58c23.64,5.53 132.18,-18.26 158.87,-26.65 10.41,-93.91 -11.38,-240.37 7.3,-322.8 50.87,-12.49 161.04,-23.39 196.87,-47.29 6.06,-47.55 3.01,-78.74 -0.19,-126.21 -79.53,-5.53 -125.79,36.48 -195.72,24.41 -22.23,-84.94 18.84,-165.33 67.13,-196.34 61.06,-3.45 83.09,57.58 136.26,30.11 15.33,-7.91 80.02,-75.29 89.17,-96.24 0.41,-20.52 -40.42,-39.24 -54.96,-49.16 -13.48,-9.19 -1.42,-4.68 -25.08,-15.46 -105.14,-47.91 -169.28,-38.61 -248.63,42.04 -16.35,16.62 -23.05,22.53 -35.85,38.86 -39.03,49.77 -90.04,104.05 -95.27,185.9 -5.82,91.17 -2.59,197.67 -2.59,290.25z"/>
   <path class="fil2" d="M12618.48 13354.66c38.8,13.23 121.01,-7.68 155.66,-20.35 11.05,-64.53 -8.58,-285.66 10.84,-318.76 27.85,-41.78 168.43,-27.78 192.14,-56.33 9.38,-11.29 28.2,-120.84 -6.64,-126.78 -1.42,-0.24 -3.87,-1.11 -5.66,-1.31 -38.71,-4.4 -129.35,31.85 -178.43,18.55 -11.27,-66.48 4.36,-164.23 62.67,-181.87 49.13,-14.87 63.11,8.55 98.36,15.93 45.11,9.44 59.68,-22.88 83.08,-44.47 75.8,-69.93 62.8,-75.34 -30.3,-119.06 -28.57,-13.41 -71.38,-19.61 -108.43,-20.22 -71.53,-1.17 -105.6,41.4 -154.81,95.38 -78.95,86.59 -117.39,128.78 -118.83,255.64 -1,88.46 -8.92,443.49 0.35,503.65z"/>
   <path class="fil2" d="M10287.04 10490.29c26.99,23.81 96.25,-10.85 182.02,7.73 16.35,3.54 49.98,14.64 73.96,21.04 51.76,13.83 74.03,55.29 54.65,105.36 -10.3,26.6 -8.02,19.99 -27.58,40.23 -82.72,85.62 -273.12,170.24 -388.78,217.27 -27.76,11.29 -44.26,12.54 -70.97,25.26 -34.4,16.4 -203.89,56.23 -218.53,68.8 55.59,33.31 244.15,-35.32 293.65,-47.41 164.29,-40.12 369.25,-142.53 495.18,-248.58l44.69 -49.37c17.65,-23.61 42.91,-34.04 40.04,-79.45 -5.13,-81.06 -210.57,-94.95 -268.31,-95.72 -56.86,-0.77 -172.76,10.64 -210.02,34.84z"/>
   <path class="fil0" d="M11612.8 13148.1l0 -53.97c0,-87.31 -15.84,-172.6 -55.35,-222.4 -35.18,-19.61 -63.38,15.5 -78.02,44.41 -14.25,28.16 -16.26,69.85 -23.98,104.43 -9.6,43.06 -13.14,54.08 -12.37,107.28 0.81,55.57 16.06,163.59 42.33,205.01 73.34,115.62 127.39,-70.85 127.39,-184.76z"/>
   <path class="fil0" d="M8126.02 12918.74c0,50.15 1.18,133.6 16.11,176.13 5.98,17.03 5.67,10.93 12.63,28.15 5.22,12.91 6.28,21.57 12.04,34.71 9.57,21.81 24.44,31.93 43.46,43.48 56.22,-16.35 55.2,-71.97 70.15,-110.99 29.48,-77.03 5.55,-300.29 -38.86,-365.48 -53.17,-78.05 -97.67,16.05 -106.93,79.27 -6.16,42.07 -8.6,70.02 -8.6,114.73z"/>
   <path class="fil0" d="M11109.89 10821.85c43.04,12.48 52.39,-24.82 71.28,-52.07 46.8,-67.5 137.1,-207.57 81.94,-289.96 -37.76,-56.41 -117.81,12.87 -128.7,27.46 -5.91,7.93 -8.9,12.87 -14.04,19.86 -0.76,1.03 -2.15,2.47 -2.87,3.51 -23.4,33.55 -12.23,244.46 -7.61,291.2z"/>
   <path class="fil0" d="M6797.7 12637.99c-26.71,17.02 -19.39,33.9 -16.83,71.68 4.81,71.13 -5.52,127.76 46.91,134.61 17.47,2.29 71.14,-0.8 83.71,-9.45 31.67,-21.79 26.17,-122.52 -0.06,-148.19 -28.99,-28.36 -77.66,-71.63 -113.73,-48.65z"/>
   <path class="fil0" d="M7490.31 12535.24c-20.02,17.28 -9,111.46 -6.67,141.06 4.95,62.78 61.3,39.44 86.18,13.78 78.05,-80.5 -30.48,-197.14 -79.51,-154.84z"/>
   <path class="fil0" d="M6783.62 12334.8c-4.64,29.51 1.64,99.26 4.83,131.44 9.18,92.68 140.07,17.69 97.63,-92.52 -17.62,-45.76 -67.6,-54.3 -102.46,-38.92z"/>
  </g>
 </g>
</svg>
